<?xml version="1.0" encoding="UTF-8"?>
<svg id="_레이어_1" data-name=" 레이어 1" xmlns="http://www.w3.org/2000/svg" width="62" height="62" version="1.1" viewBox="0 0 62 62">
  <defs>
    <style>
      .cls-1 {
        fill: #000;
        stroke-width: 0px;
      }
    </style>
  </defs>
  <path class="cls-1" d="M30.3,43.1v3.9h1.5v-3.9c.9-.8,3.8-3.7,5-7.2,1.2-3.5,2.7-10.4-1.4-16.5-1.2-1.9-3.8-4.9-3.8-5l-.6-.7-.6.7c-.1.1-2.6,3.1-3.8,5-4.1,6.1-2.6,13-1.4,16.5,1.2,3.5,4.1,6.4,5,7.2h0ZM25.4,27.6l4.8,3.4v4.2l-4.5-3.1c-.3-1.4-.4-3-.4-4.6h0ZM36.3,32.2l-4.5,3.1v-4.2l4.8-3.4c0,1.7,0,3.2-.4,4.6h0ZM31.8,29.2v-4.8l3.5-2.4c.6,1.3,1,2.7,1.2,4l-4.7,3.3h0ZM30.3,29.2l-4.7-3.3c.2-1.3.6-2.7,1.2-4l3.5,2.4v4.8h0ZM31.8,41v-4l4-2.7c-.1.4-.2.7-.4,1-.8,2.4-2.5,4.4-3.7,5.6h0ZM34.5,20.7l-2.8,1.9v-5.7c.8,1,1.8,2.3,2.4,3.3.1.2.2.4.3.5h0ZM30.3,16.9v5.7l-2.8-1.9c.1-.2.2-.4.3-.5.6-.9,1.7-2.2,2.4-3.3h0ZM26.3,34.4l4,2.7v4c-1.1-1.2-2.8-3.2-3.7-5.6-.1-.3-.2-.6-.4-1h0Z"/>
  <path class="cls-1" d="M42.9,36.7c-1.2,0-2.2,1-2.2,2.2v1.7c0,1.2,1,2.2,2.2,2.2s2.2-1,2.2-2.2v-1.7c0-1.2-1-2.2-2.2-2.2Z"/>
  <path class="cls-1" d="M19.2,36.7c-1.2,0-2.2,1-2.2,2.2v1.7c0,1.2,1,2.2,2.2,2.2s2.2-1,2.2-2.2v-1.7c0-1.2-1-2.2-2.2-2.2Z"/>
</svg>