<?xml version="1.0" encoding="UTF-8"?>
<svg id="_레이어_1" data-name=" 레이어 1" xmlns="http://www.w3.org/2000/svg" width="62" height="62" version="1.1" viewBox="0 0 62 62">
  <defs>
    <style>
      .cls-1 {
        fill: #000;
        stroke-width: 0px;
      }
    </style>
  </defs>
  <path class="cls-1" d="M51.5,22.6c-.2.4-.2.9,0,1.7.2.7.6,1.1,1,1.4.6.4,1.4.4,3.1-.2h0l-.5-1.7h0c-1.2.4-1.9.6-2.1,0s.5-.9,1.3-1.1l3-.9c.8-.3,1.5-.5,1.7.1.2.6-.5.8-1.5,1.2h0l.5,1.7h0c1.5-.5,2.2-1,2.5-1.7.2-.5.2-1,0-1.7-.2-.8-.6-1.2-1-1.4-.6-.4-1.4-.4-3.1.2l-2.3.8c-1.7.6-2.4,1.1-2.6,1.7h.1Z"/>
  <polygon class="cls-1" points="53.4 26.9 52.4 27 52.8 30.9 54.3 30.8 54.1 28.6 56.6 28.3 56.8 30.1 58.3 29.9 58.2 28.2 60.3 27.9 60.5 30.2 62 30 61.6 26.1 60.6 26.2 53.4 26.9"/>
  <path class="cls-1" d="M53.8,31.5h-.9c0-.1-.2,1.6-.2,1.6h.9c0,.1,2.8.5,2.8.5v.5l-3.9.4-.2,1.8,4.3-.6c.4.7,1.2,1.1,2.1,1.2h0c1.5.2,2.8-.2,3.1-2.1l.3-2.2h-.9c0-.1-7.3-1-7.3-1h0ZM60.3,34.4c-.1.8-.7.8-1.4.8h0c-.7-.1-1.2-.3-1.1-1.1v-.3l2.6.3v.4h-.1Z"/>
  <polygon class="cls-1" points="53 36.8 52.1 36.5 50.8 40.3 52.1 40.7 52.9 38.6 55.3 39.5 54.7 41.2 56.2 41.7 56.7 40 58.8 40.7 58 42.8 59.5 43.3 60.8 39.6 59.9 39.3 53 36.8"/>
  <path class="cls-1" d="M51.5,41.1l-.8-.5-.9,1.2.8.5,3.4,2.4c.3.2.7.5,1,.6h0c-.3-.1-.8-.4-1.1-.5l-4.8-2.1-.7,1.1,3.7,3.7c.2.2.6.6.9.8h0c-.3-.2-.6-.5-.9-.6l-3.4-2.4-.8-.5-.9,1.2.8.5,6,4.1.8.5,1.3-1.9-3.2-3.2c-.2-.2-.6-.6-.9-.8h0c.3.1.8.4,1.1.5l4.1,1.8,1.3-1.9-.8-.5s-6-4.1-6-4.1Z"/>
  <path class="cls-1" d="M48.8,49c-1.2-1.4-1.8-1.8-2.5-1.9-.5,0-1.1.2-1.6.6-.5.5-.8.9-.9,1.5-.1.6.1,1.4,1.3,2.8l1.5,1.9c1.2,1.5,1.8,1.8,2.5,1.9.5,0,1.1-.2,1.6-.6.5-.5.8-.9.9-1.5.1-.6-.1-1.4-1.3-2.8l-1.5-1.9ZM49.7,53.9c-.5.4-.9-.1-1.5-.8l-1.9-2.4c-.5-.7-1-1.2-.5-1.7.5-.4.9.1,1.5.8l1.9,2.4c.5.7,1,1.2.5,1.7h0Z"/>
  <path class="cls-1" d="M42.8,50.5l-.4-.9-1.5.7.4.8,1.4,3c.2.4.4.8.5,1.1h0c-.2-.2-.5-.5-.8-.9l-3.2-3.2-1.4.6.4.8,3.1,6.7.4.9,1.5-.7-.4-.8-1.1-2.5c-.2-.4-.4-.8-.5-1.1h0c.2.2.5.5.8.9l2.8,2.8,1.6-.8-.4-.8s-3.1-6.7-3.1-6.7Z"/>
  <polygon class="cls-1" points="37.3 52.8 37 51.9 35.4 52.3 35.6 53.2 37.3 60.3 37.6 61.3 39.3 60.9 39 59.9 37.3 52.8"/>
  <path class="cls-1" d="M33.3,54.5h-1.5c0,.1-.4-1.7-.4-1.7h-1.7c0,.1,2.1,9.2,2.1,9.2l2.4-.2.9-9.3h-1.7c0,.1-.1,1.9-.1,1.9h0ZM33,58.4v1.4h0c0-.4-.2-.9-.2-1.4l-.5-2.4h1c0,0-.2,2.3-.2,2.3h0Z"/>
  <polygon class="cls-1" points="25.7 53.7 27.7 54 26.7 60.7 26.6 61.6 28.3 61.9 28.4 61 29.5 53.7 29.6 52.8 25.9 52.2 25.7 53.7"/>
  <path class="cls-1" d="M21.8,50.5c-.6-.3-1.2-.2-1.7.1h0v-.8l-.7-.4-2.1,4.4,2.2,1.1.6-1.4-.6-.3h0c.4-.9.8-1.7,1.5-1.4.6.3.4.9,0,1.8l-1.4,2.8c-.4.8-.7,1.5-1.3,1.2s-.3-.9.2-1.9h0l-1.6-.8h0c-.7,1.6-.8,2.3-.5,2.9.2.5.6.9,1.2,1.2.6.3,1.2.4,1.7.2.6-.2,1.2-.8,2-2.4l1-2.2c.8-1.7.9-2.4.6-3.1-.2-.4-.5-.8-1.1-1.1h0Z"/>
  <path class="cls-1" d="M18.8,49.1l-1.4-1.1-.6.7-1.8,2.1-.4-.3,1.7-3.4-1.3-1.1-.9-1.2-1.6.9-.9-1.2,1.3-1.3-1-1.4-6.4,6.7,1.4,1.9,7.9-4.1-1.7,3.5c-.8,0-1.5.4-2.1,1.1h0c-.9,1.2-1.4,2.5.1,3.8l1.7,1.5.6-.7,4.7-5.6.6-.7h0ZM9.2,47.6c-.4.2-.9.5-1.2.7h0c.2-.3.7-.7,1-1l1.7-1.7.6.8-2.1,1.2h0ZM12.6,54l-.3-.2c-.6-.5-.4-1.1.1-1.6h0c.5-.5.9-.9,1.5-.4l.2.2-1.7,2h0Z"/>
  <path class="cls-1" d="M12,41.7l-.9-2.3c-.2-.6-.6-1-1.1-1.2-.6-.3-1.3-.2-2.7.4l-2.8,1.2c-1.4.6-1.8,1.1-2.1,1.7-.2.5-.1,1.1.1,1.7l.9,2.3.9-.4,6.7-2.9s.9-.4.9-.4ZM4.2,43.2l-.2-.4c-.4-.8.5-1.1.9-1.3l3.2-1.4c.4-.2,1.2-.5,1.6.2l.2.4s-5.8,2.5-5.8,2.5Z"/>
  <polygon class="cls-1" points="10 36.7 9.3 32.8 7.8 33.1 8.2 35.3 5.7 35.7 5.4 34 3.9 34.3 4.2 36 2.1 36.4 1.7 34.2 .2 34.5 .9 38.4 1.9 38.2 9.1 36.9 10 36.7"/>
  <path class="cls-1" d="M8.1,30.2l.9.2.3-1.5-.9-.2-4.1-.8c-.4,0-.8-.1-1.2-.2h6.4l.2-1.3-4.9-1.8c-.4-.1-.8-.3-1.1-.4h0c.4,0,.8.1,1.2.2l4.1.8.9.2.3-1.5-.9-.2-7.2-1.3-.9-.2-.4,2.2,4.3,1.6c.4.1.8.3,1.1.4H.4l-.4,2.3.9.2,7.2,1.3h0Z"/>
  <path class="cls-1" d="M11.1,22.3l-1.5-1,.6-1.3,1.8.5.7-1.5-9-2.6-1,2.1,7.7,5.3.8-1.5h0ZM8.3,20.4l-2-1.3c-.4-.2-.9-.6-1.2-.8h0c.3,0,.9.2,1.4.4l2.3.7-.4.9h0Z"/>
  <polygon class="cls-1" points="7.4 13.2 12.8 17.4 13.5 18.1 14.6 16.7 13.8 16.1 8.5 11.9 9.4 10.7 8.3 9.8 5.4 13.4 6.6 14.3 7.4 13.2"/>
  <path class="cls-1" d="M13.5,12.8c1.1,1.4,1.8,1.8,2.5,1.9.4,0,1-.1,1.6-.6s.8-.9.9-1.5c.1-.6-.1-1.4-1.3-2.9h0l-1.4,1.1h0c.8,1,1.2,1.6.7,2-.5.4-.9-.1-1.5-.8l-1.9-2.4c-.6-.7-1-1.2-.5-1.7.5-.4.9.1,1.7,1h0l1.4-1.1h0c-1-1.3-1.7-1.7-2.4-1.8-.5,0-1,.1-1.6.6-.6.5-.9,1-.9,1.5-.1.6.2,1.4,1.3,2.8l1.5,1.9h0Z"/>
  <polygon class="cls-1" points="19.2 11.3 19.7 12.2 21.3 11.5 20.8 10.6 19.5 7.9 20.7 7.3 22 10 22.4 10.9 24 10.2 23.6 9.3 20.5 2.7 20.1 1.8 18.5 2.5 18.9 3.4 20.1 5.8 18.8 6.4 17.7 4 17.4 3.1 15.8 3.8 16.2 4.7 19.2 11.3"/>
  <path class="cls-1" d="M25.8,9.7v-1.8c-.1,0,1.3-.3,1.3-.3l.6,1.8,1.7-.4L26,.3l-2.3.5.4,9.3s1.7-.4,1.7-.4ZM25.3,2.5c.1.4.3.9.4,1.4l.8,2.2-1,.2-.2-2.4c0-.5,0-1.1-.1-1.4h.1Z"/>
  <path class="cls-1" d="M32.6,8.3v.9c-.1,0,1.6.2,1.6.2v-.9c0,0,.8-7.4.8-7.4V.1c.1,0-.9-.1-.9-.1-.2.4-.9.9-2,1.2v1c-.1,0,1.1.1,1.1.1,0,0-.5,5.9-.5,5.9Z"/>
  <path class="cls-1" d="M37.1,10.2c.6.2,1.2.2,1.7,0,.6-.3,1.1-1.1,1.5-2.7l.7-2.4c.5-1.6.5-2.5.2-3.1-.2-.4-.8-.8-1.4-1-.6-.2-1.2-.2-1.7,0-.6.3-1.1,1.1-1.5,2.7l-.7,2.4c-.5,1.6-.5,2.5-.2,3.1.2.4.8.8,1.4,1ZM37.4,7l.9-3.1c.2-.9.5-1.6,1.1-1.4.6.2.4.9.1,1.8l-.9,3.1c-.2.9-.5,1.6-1.1,1.4-.6-.2-.4-.9-.2-1.8Z"/>
  <path class="cls-1" d="M40.7,10.9c.2.5.5.9,1.1,1.3.5.3,1.2.4,1.7.3.7-.2,1.3-.8,2.1-2.2l1.2-2.1c.8-1.5,1.1-2.3.8-3-.2-.5-.5-.9-1.1-1.3s-1.2-.4-1.7-.3c-.7.2-1.3.8-2.1,2.2l-1.2,2.1c-.8,1.5-1.1,2.3-.9,3h0ZM42.8,9.2l1.6-2.8c.5-.8.8-1.4,1.4-1.1.5.3.2.9-.3,1.8l-1.6,2.8c-.5.8-.8,1.4-1.4,1.1-.6-.4-.2-.9.2-1.8Z"/>
  <path class="cls-1" d="M49.6,12.5c.5,0,1-.1,1.8-.9l.5-.4c.8-.7,1.1-1.2,1.1-1.7s-.2-.9-.5-1.3-.8-.6-1.2-.7c-.5,0-1,.1-1.8.8l-.5.4c-.8.7-1.1,1.2-1.1,1.7s.2.9.5,1.3.8.6,1.2.7h0ZM49.7,10.1l.9-.8c.4-.4.7-.6.9-.3.3.3,0,.6-.4.9l-.9.8c-.4.4-.7.6-.9.3-.3-.3,0-.6.4-.9Z"/>
  <path class="cls-1" d="M52.6,18.1c.8-.7,1.1-1.2,1.1-1.7s-.2-.9-.5-1.3-.8-.6-1.2-.7c-.5,0-1,.1-1.8.8l-.5.4c-.8.7-1.1,1.2-1.1,1.7s.2.9.5,1.3c.4.4.8.6,1.2.7.5,0,1-.1,1.8-.9l.5-.4h0ZM51.8,16.8l-.9.8c-.4.4-.7.6-.9.3-.3-.3,0-.6.4-.9l.9-.8c.4-.4.7-.6.9-.3.3.3,0,.6-.4.9Z"/>
  <polygon class="cls-1" points="46.6 15.8 55.7 12 54.8 11.1 45.8 14.8 46.6 15.8"/>
</svg>